# xmcd
#
# Track frame offsets:
#	182
#	22837
#	42912
#	47932
#	77255
#	92880
#	112177
#	130735
#	148622
#	160330
#	178347
#	192615
#	211775
#	242860
#	258562
#	276915
#	297177
#	315510
#	332462
#
# Disc length: 4610 seconds
#
# Revision: 0
# Processed by: cddbd v1.4PL0 Copyright (c) Steve Scherf et al.
# Submitted via: EasyCDDAExtractor 4.6.0.1
#
DISCID=18120013
DTITLE=Kevin Coyne - Pointing the Finger/Politicz
DYEAR=1900
DGENRE=Blues
TTITLE0=There she Goes
TTITLE1=As I Recall
TTITLE2=Children of the Deaf
TTITLE3=One Little Moment
TTITLE4=Let Love Reside
TTITLE5=Sleeping - Waking
TTITLE6=Pointing the Finger
TTITLE7=You Can't Do That
TTITLE8=Song of the Womb
TTITLE9=Old Lady
TTITLE10=Your Holiness
TTITLE11=Liberation
TTITLE12=Fun Flash
TTITLE13=Flashing Back
TTITLE14=Tell the Truth
TTITLE15=Banzai
TTITLE16=Poisoning You
TTITLE17=Magnolia Street
TTITLE18=I've Got The Photographs
EXTD=
EXTT0=
EXTT1=
EXTT2=
EXTT3=
EXTT4=
EXTT5=
EXTT6=
EXTT7=
EXTT8=
EXTT9=
EXTT10=
EXTT11=
EXTT12=
EXTT13=
EXTT14=
EXTT15=
EXTT16=
EXTT17=
EXTT18=
PLAYORDER=
